<?xml version="1.0" encoding="UTF-8"?>
<svg width="4158px" height="1178px" viewBox="0 0 4158 1178" version="1.1" xmlns="http://www.w3.org/2000/svg" xmlns:xlink="http://www.w3.org/1999/xlink">
    <!-- Generator: Sketch 41.1 (35376) - http://www.bohemiancoding.com/sketch -->
    <title>logo_line_full</title>
    <desc>Created with Sketch.</desc>
    <defs>
        <polygon id="path-1" points="1027.83545 1.98577174 0.000832608696 1.98577174 0.000832608696 1157.32606 1027.83545 1157.32606 1027.83545 1.98577174"></polygon>
        <polygon id="path-3" points="0 0.370927174 0 157.729808 162.919041 157.729808 162.919041 0.370927174 5.64197598e-19 0.370927174"></polygon>
    </defs>
    <g id="Page-1" stroke="none" stroke-width="1" fill="none" fill-rule="evenodd">
        <g id="logo_line_full">
            <g transform="translate(8.000000, 8.000000)">
                <g id="Group-3" transform="translate(0.000000, 2.177272)">
                    <mask id="mask-2" fill="white">
                        <use xlink:href="#path-1"></use>
                    </mask>
                    <g id="Clip-2"></g>
                    <path d="M876.030072,439.745613 L997.374463,587.396276 L950.923224,587.396276 C944.025061,587.396276 934.858039,583.045896 930.449376,577.683896 L809.109148,430.033233 L855.556224,430.033233 C862.454387,430.033233 871.621409,434.383613 876.030072,439.745613 L876.030072,439.745613 Z M895.130115,653.971667 C888.236115,653.971667 879.06493,649.62545 874.656267,644.259287 L753.316039,496.612787 L799.767278,496.612787 C806.661278,496.612787 815.8283,500.959004 820.236963,506.321004 L941.581354,653.971667 L895.130115,653.971667 Z M839.332843,720.547059 C832.43468,720.547059 823.267659,716.200841 818.863159,710.838841 L697.52293,563.188178 L743.970007,563.188178 C750.872333,563.188178 760.035191,567.534396 764.443854,572.896396 L885.784083,720.547059 L839.332843,720.547059 Z M588.3263,792.979852 C565.333811,792.979852 534.881148,778.563233 520.30217,760.7912 L199.406452,369.319407 L439.493333,369.319407 C462.485822,369.319407 492.942648,383.731863 507.517463,401.512222 L828.417343,792.979852 L588.3263,792.979852 Z M283.853789,599.11108 C276.955626,599.11108 267.788604,594.7607 263.379941,589.3987 L142.039713,441.7522 L188.495115,441.7522 C195.389115,441.7522 204.556137,446.098417 208.9648,451.460417 L330.300865,599.11108 L283.853789,599.11108 Z M228.06068,665.686472 C221.162517,665.686472 211.995496,661.340254 207.586833,655.974091 L86.2424413,508.327591 L132.69368,508.327591 C139.591843,508.327591 148.758865,512.673809 153.167528,518.035809 L274.507757,665.686472 L228.06068,665.686472 Z M172.267572,732.261863 C165.369409,732.261863 156.202387,727.915646 151.793724,722.553646 L30.4493326,574.902983 L76.9005717,574.902983 C83.7987348,574.902983 92.9657565,579.2492 97.3744196,584.6112 L218.714648,732.261863 L172.267572,732.261863 Z M920.695365,296.88245 L1017.29463,296.88245 C1009.06013,280.817265 996.74168,266.496396 982.95368,258.520004 L558.035996,12.7214283 C533.249235,-1.62025652 493.071702,-1.59111522 468.301593,12.7797109 L44.8493,258.465885 C20.0750283,272.832548 0.000832608696,307.7022 0.000832608696,336.339776 L0.000832608696,641.478374 L21.107463,641.478374 C28.001463,641.478374 37.1684848,645.828754 41.5771478,651.186591 L162.921539,798.837254 L116.466137,798.837254 C109.572137,798.837254 100.405115,794.491037 95.9964522,789.129037 L0.000832608696,672.314037 L0.000832608696,735.063591 L107.12843,865.412646 L10.5583109,865.412646 C18.8219522,881.440363 31.1986804,895.70295 45.044963,903.59608 L471.582072,1146.75112 C496.46042,1160.93045 536.742028,1160.83886 561.562093,1146.54713 L982.899561,903.80007 C1007.71963,889.508341 1027.83545,854.701135 1027.83545,826.063559 L1027.83545,520.820885 L1006.7205,520.820885 C999.822333,520.820885 990.655311,516.470504 986.250811,511.108504 L864.90642,363.457841 L911.357659,363.457841 C918.251659,363.457841 927.41868,367.808222 931.827343,373.170222 L1027.83545,489.997711 L1027.83545,427.248157 L920.695365,296.88245 Z" id="Fill-1" fill="#465468" mask="url(#mask-2)"></path>
                </g>
                <path d="M1027.8367,429.425845 L1027.8367,338.517464 C1027.8367,325.803529 1023.86516,311.878149 1017.29587,299.060138 L920.696614,299.060138 L1027.8367,429.425845 Z" id="Fill-4" fill="#FEFEFE"></path>
                <path d="M809.110397,432.212586 L930.450625,579.863249 C934.859288,585.225249 944.02631,589.571466 950.92031,589.571466 L997.375712,589.571466 L876.031321,441.924966 C871.622658,436.558803 862.455636,432.212586 855.557473,432.212586 L809.110397,432.212586 Z" id="Fill-6" fill="#FEFEFE"></path>
                <path d="M743.971255,565.365034 L697.524179,565.365034 L818.860245,713.015697 C823.268908,718.377697 832.435929,722.723914 839.329929,722.723914 L885.781168,722.723914 L764.445103,575.077414 C760.03644,569.711251 750.869418,565.365034 743.971255,565.365034" id="Fill-8" fill="#FEFEFE"></path>
                <path d="M799.765613,498.78881 L753.318537,498.78881 L874.658765,646.439473 C879.067428,651.801473 888.23445,656.14769 895.12845,656.14769 L941.583852,656.14769 L820.239461,508.50119 C815.826635,503.135027 806.659613,498.78881 799.765613,498.78881" id="Fill-10" fill="#FEFEFE"></path>
                <path d="M911.356826,365.636362 L864.905587,365.636362 L986.249978,513.287025 C990.654478,518.649025 999.825663,522.995242 1006.71966,522.995242 L1027.83462,522.995242 L1027.83462,492.172068 L931.826511,375.344579 C927.417848,369.982579 918.250826,365.636362 911.356826,365.636362" id="Fill-12" fill="#FEFEFE"></path>
                <path d="M0,737.240863 L0,828.24083 C0,840.942276 3.97986957,854.826026 10.5616413,867.589917 L107.127598,867.589917 L0,737.240863 Z" id="Fill-14" fill="#FEFEFE"></path>
                <path d="M76.9026533,577.079422 L30.4514141,577.079422 L151.795805,724.730085 C156.200305,730.092085 165.37149,734.438302 172.26549,734.438302 L218.712566,734.438302 L97.372338,586.791802 C92.963675,581.425639 83.7966533,577.079422 76.9026533,577.079422" id="Fill-16" fill="#FEFEFE"></path>
                <path d="M188.49345,443.92739 L142.042211,443.92739 L263.378276,591.578053 C267.786939,596.940053 276.953961,601.286271 283.852124,601.286271 L330.303363,601.286271 L208.963135,453.635608 C204.554472,448.273608 195.38745,443.92739 188.49345,443.92739" id="Fill-18" fill="#FEFEFE"></path>
                <path d="M132.694929,510.503614 L86.2436902,510.503614 L207.588082,658.154277 C211.996745,663.516277 221.163766,667.862495 228.057766,667.862495 L274.509005,667.862495 L153.168777,520.211832 C148.755951,514.849832 139.588929,510.503614 132.694929,510.503614" id="Fill-20" fill="#FEFEFE"></path>
                <g id="Group-24" transform="translate(0.000000, 643.285967)">
                    <mask id="mask-4" fill="white">
                        <use xlink:href="#path-3"></use>
                    </mask>
                    <g id="Clip-23"></g>
                    <path d="M116.467802,157.729808 L162.919041,157.729808 L41.57465,10.0791446 C37.17015,4.71714457 27.9989652,0.370927174 21.1049652,0.370927174 L-0.00166521739,0.370927174 L-0.00166521739,31.2065902 L95.9939543,148.02159 C100.40678,153.38359 109.573802,157.729808 116.467802,157.729808" id="Fill-22" fill="#FEFEFE" mask="url(#mask-4)"></path>
                </g>
                <path d="M439.493749,371.494597 L199.406868,371.494597 L520.302586,762.96639 C534.881564,780.742586 565.334227,795.159205 588.326716,795.159205 L828.41776,795.159205 L507.517879,403.691575 C492.943064,385.907053 462.486238,371.494597 439.493749,371.494597" id="Fill-25" fill="#7ED3F6"></path>
                <path d="M1331.95452,685.155361 L1331.95452,438.832241 L1380.58719,438.832241 L1384.10497,456.100546 C1401.25671,440.593209 1424.04521,432.021502 1452.47047,430.372937 C1485.36267,428.499567 1512.14353,437.246122 1532.82137,456.625089 C1553.49088,476.012383 1563.82772,502.851524 1563.82772,537.150839 L1563.82772,683.748252 L1563.82772,684.097948 L1563.82772,684.447643 L1563.82772,684.805665 L1563.82772,685.155361 L1508.85889,685.155361 L1508.85889,543.141459 C1508.85889,524.112187 1503.80079,509.787154 1493.70541,500.153872 C1481.24542,487.939502 1465.15942,482.652437 1445.4266,484.292676 C1433.44536,485.233524 1422.10523,488.110187 1411.41869,492.922665 C1400.728,497.74347 1392.92229,503.088817 1387.98492,508.958709 L1387.98492,685.155361 L1331.95452,685.155361 Z" id="Fill-27" fill="#465468"></path>
                <path d="M1729.93607,536.578421 L1658.90622,536.578421 C1658.90622,536.578421 1662.22416,510.87579 1682.38995,493.395171 C1702.55573,475.918714 1720.17373,474.494953 1729.93607,474.494953 C1739.70257,474.494953 1757.3164,475.918714 1777.48218,493.395171 C1797.64797,510.87579 1800.96591,536.578421 1800.96591,536.578421 L1729.93607,536.578421 Z M1859.47749,557.972301 C1859.47749,519.826334 1847.55037,488.153899 1823.69197,462.946671 C1800.14996,437.905964 1769.0437,425.379366 1730.37735,425.379366 C1691.70684,425.379366 1659.90118,437.985062 1634.95623,463.19229 C1609.84891,488.232997 1597.3015,519.826334 1597.3015,557.972301 C1597.3015,596.118268 1610.4359,627.545084 1636.70887,652.252747 C1662.98184,676.964573 1696.54013,689.316323 1737.39208,689.316323 C1760.1556,689.316323 1781.59527,684.71616 1801.70693,675.511671 C1821.82276,666.307182 1837.80052,653.493334 1849.65271,637.078453 L1798.43478,611.704703 C1790.85804,621.296355 1761.93322,638.839421 1731.71368,638.464747 C1703.13023,638.110888 1690.26642,628.635801 1682.56479,621.958279 C1669.00992,610.210171 1663.08175,594.773605 1660.64221,585.897997 C1659.87621,583.537551 1659.28089,581.110497 1658.90622,578.616834 L1857.83725,578.616834 C1858.92797,568.833682 1859.47749,561.952171 1859.47749,557.972301 L1859.47749,557.972301 Z" id="Fill-29" fill="#465468"></path>
                <polygon id="Fill-31" fill="#465468" points="2079.16795 438.832658 2133.08353 594.942625 2185.94586 438.832658 2246.20591 438.832658 2159.86855 685.155777 2107.36008 685.155777 2054.14806 533.279625 2000.93604 685.155777 1948.43174 685.155777 1862.09438 438.832658 1922.35443 438.832658 1975.2126 594.942625 2029.12817 438.832658"></polygon>
                <path d="M2630.31578,685.155361 L2630.31578,438.832241 L2678.94845,438.832241 L2682.46622,456.100546 C2699.6138,440.593209 2722.40646,432.021502 2750.83172,430.372937 C2783.72393,428.499567 2810.50479,437.246122 2831.18263,456.625089 C2851.85214,476.012383 2862.18897,502.851524 2862.18897,537.150839 L2862.18897,683.748252 L2862.18897,684.097948 L2862.18897,684.447643 L2862.18897,684.805665 L2862.18897,685.155361 L2807.21598,685.155361 L2807.21598,543.141459 C2807.21598,524.112187 2802.16205,509.787154 2792.06667,500.153872 C2779.60668,487.939502 2763.52068,482.652437 2743.78785,484.292676 C2731.80662,485.233524 2720.46648,488.110187 2709.77995,492.922665 C2699.08926,497.74347 2691.27939,503.088817 2686.34618,508.958709 L2686.34618,685.155361 L2630.31578,685.155361 Z" id="Fill-33" fill="#465468"></path>
                <path d="M3026.41105,485.349673 C3004.5634,485.349673 2986.94123,491.814879 2973.55288,504.72864 C2959.68995,518.121151 2952.75848,537.271151 2952.75848,562.170314 C2952.75848,587.07364 2959.68995,606.219477 2973.55288,619.611988 C2986.7081,632.296782 3004.3261,638.637097 3026.41105,638.637097 C3048.49183,638.637097 3066.10983,632.296782 3079.26921,619.611988 C3093.12798,606.219477 3100.05945,587.07364 3100.05945,562.170314 C3100.05945,537.271151 3093.12798,518.121151 3079.26921,504.72864 C3065.8767,491.814879 3048.2587,485.349673 3026.41105,485.349673 M3155.3863,562.170314 C3155.3863,600.703445 3142.81807,632.296782 3117.68161,656.966977 C3092.54099,681.63301 3062.11747,693.959782 3026.41105,693.959782 C2990.6963,693.959782 2960.27694,681.63301 2935.14048,656.966977 C2909.99986,632.296782 2897.43163,600.703445 2897.43163,562.170314 C2897.43163,523.641347 2909.99986,491.989727 2935.14048,467.202966 C2960.27694,442.412042 2990.6963,430.022825 3026.41105,430.022825 C3062.11747,430.022825 3092.54099,442.478651 3117.68161,467.377814 C3142.81807,492.043847 3155.3863,523.641347 3155.3863,562.170314" id="Fill-35" fill="#465468"></path>
                <path d="M3294.40697,433.722105 C3311.43798,429.617345 3328.06102,428.963747 3344.27191,431.78629 C3338.16056,460.448845 3334.40549,477.833714 3332.99422,483.940899 C3314.90163,482.53379 3299.98545,483.179062 3288.23734,485.876714 C3276.48923,488.582692 3264.39559,495.451714 3251.94393,506.492105 L3251.94393,685.153279 L3194.15256,685.153279 L3194.15256,438.480464 L3245.24559,438.480464 L3249.12555,455.39491 C3262.28077,445.062236 3277.3718,437.835192 3294.40697,433.722105" id="Fill-37" fill="#465468"></path>
                <path d="M3649.79808,428.965412 C3680.33817,428.257695 3705.59119,437.308151 3725.56131,456.100129 C3746.70541,476.066086 3757.27954,505.082499 3757.27954,543.141042 L3757.27954,685.154945 L3702.30239,685.154945 L3702.30239,541.380075 C3702.06926,521.647249 3697.48575,506.964195 3688.56018,497.330912 C3678.46064,486.290521 3663.89415,481.473879 3644.86488,482.880988 C3622.30951,484.766847 3603.63409,494.279401 3588.83031,511.426977 C3591.17827,520.827129 3592.35641,531.63439 3592.35641,543.84876 L3592.35641,685.154945 L3537.38342,685.154945 L3537.38342,542.791347 C3537.38342,523.291651 3533.15377,508.729325 3524.69863,499.096042 C3515.29848,488.288782 3500.38229,483.230684 3479.94175,483.938401 C3460.20892,484.646118 3442.70749,492.872292 3427.43744,508.608597 C3427.43744,547.845282 3427.54984,606.689901 3427.7913,685.154945 L3372.46445,685.154945 L3372.46445,438.477966 L3420.38941,438.477966 L3423.91134,456.100129 C3429.55227,450.700662 3438.24054,445.180466 3449.98865,439.535379 C3461.73259,433.902782 3473.01028,430.730542 3483.8217,430.022825 C3515.06534,427.679032 3541.84204,438.956716 3564.16844,463.855879 C3592.11912,441.30051 3620.66511,429.673129 3649.79808,428.965412" id="Fill-39" fill="#465468"></path>
                <path d="M3945.28092,583.66494 C3932.4754,577.799212 3919.49503,574.385516 3906.33981,573.448832 C3891.54019,572.507984 3878.14768,575.151516 3866.16644,581.375266 C3854.1852,587.603179 3848.77741,597.998299 3849.95555,612.560625 C3850.89223,623.372049 3857.29499,632.068647 3869.16383,638.637929 C3881.02018,645.219701 3894.12128,648.275375 3908.45464,647.800788 C3935.23549,647.097234 3957.55357,640.290658 3975.40886,627.364408 L3975.40886,606.928027 C3968.12354,597.290582 3958.08228,589.543158 3945.28092,583.66494 M3959.90569,437.07169 C3977.05327,442.24219 3990.56234,450.110342 4000.42876,460.68031 C4020.63201,484.646951 4030.73571,517.414266 4030.73571,558.998908 L4030.73571,670.356158 L4030.73571,685.155777 L3982.1072,685.155777 L3978.5811,671.763266 C3972.00349,676.230212 3961.66666,680.984408 3947.57059,686.034179 C3933.47453,691.083951 3920.66901,693.723321 3909.15819,693.960614 C3876.26598,694.668332 3849.95555,688.203125 3830.22272,674.58581 C3808.13778,660.964332 3796.38967,640.873484 3794.98256,614.325755 C3793.33816,585.900495 3805.0821,562.874701 3830.22272,545.252538 C3852.07037,529.986658 3878.26424,523.529777 3908.80433,525.873571 C3932.06326,527.755266 3953.56121,535.864875 3973.29404,550.189908 C3973.29404,534.919864 3971.18337,523.05519 3966.95372,514.600049 C3962.01635,504.500505 3956.26303,497.098614 3949.68542,492.394375 C3943.34094,487.465332 3936.64677,484.059962 3929.59873,482.174103 C3922.08028,480.300734 3915.02808,479.243321 3908.45464,479.001864 C3879.55895,479.001864 3853.59821,488.402016 3830.57242,507.198158 C3827.28361,501.557234 3823.05396,495.454212 3817.88762,488.87244 C3812.71712,482.294832 3808.49164,476.308375 3805.20283,470.900582 C3816.24322,460.097484 3831.04284,450.872179 3849.60169,443.237158 C3868.16054,435.610462 3888.13066,431.314201 3909.51205,430.373353 C3925.95191,429.673962 3942.74979,431.905353 3959.90569,437.07169" id="Fill-41" fill="#465468"></path>
                <polygon id="Fill-43" fill="#465468" points="4132.93094 342.875338 4132.93094 643.222273 4140.68252 685.15661 4083.94857 685.15661 4076.54667 643.222273 4076.54667 355.364468"></polygon>
                <path d="M2492.1631,685.130799 C2473.78326,685.130799 2449.36285,673.665777 2437.6189,659.528082 L2254.28263,438.911755 L2386.99629,438.911755 C2405.36364,438.911755 2429.79238,450.364288 2441.54049,464.497821 L2624.88509,685.130799 L2492.1631,685.130799 Z" id="Fill-45" fill="#7ED3F6"></path>
            </g>
        </g>
    </g>
</svg>