<?xml version="1.0" encoding="UTF-8"?>
<svg width="32px" height="32px" viewBox="0 0 32 32" version="1.1" xmlns="http://www.w3.org/2000/svg" xmlns:xlink="http://www.w3.org/1999/xlink">
    <!-- Generator: Sketch 40.1 (33804) - http://www.bohemiancoding.com/sketch -->
    <title>Applicable law context icon</title>
    <desc>Created with Sketch.</desc>
    <defs></defs>
    <g id="Symbols" stroke="none" stroke-width="1" fill="none" fill-rule="evenodd">
        <g id="Applicable-law-context-icon">
            <g id="Group" transform="translate(4.000000, 0.000000)">
                <path d="M2.66665773,3.55271368e-15 C1.1938625,3.55271368e-15 -3.01980663e-14,1.2000077 -3.01980663e-14,2.66665933 L-3.01980663e-14,4.000019 L-3.01980663e-14,9.33333367 L-3.01980663e-14,11.999993 L-3.01980663e-14,13.3333567 L-3.01980663e-14,17.3333237 L-3.01980663e-14,18.6666833 L-3.01980663e-14,22.6666423 L-3.01980663e-14,24.000042 L-3.01980663e-14,25.3334017 L-3.01980663e-14,26.6666813 C-3.01980663e-14,28.133321 1.1938625,29.3333607 2.66665773,29.3333607 L5.33332187,29.3333607 L5.33332187,32 L8.66665423,29.3333607 L11.9999794,32 L11.9999794,29.3333607 L21.3333015,29.3333607 C22.8066375,29.3333607 23.9999656,28.133321 23.9999656,26.6666813 L23.9999656,25.3334017 C23.9999656,26.8000413 22.8066375,28.000041 21.3333015,28.000041 L11.9999794,28.000041 L11.9999794,26.6666813 L21.3333015,26.6666813 C22.8066375,26.6666813 23.9999656,25.4666816 23.9999656,24.000042 L23.9999656,22.6666423 C23.9999656,24.133402 22.8066375,25.3334017 21.3333015,25.3334017 L11.9999794,25.3334017 L5.33332187,25.3334017 L2.66665773,25.3334017 C2.26563383,25.3334017 1.88286073,25.2427217 1.54166361,25.0833617 C1.86368873,24.4024419 2.53750177,24.000042 3.33332557,24.000042 L6.66665753,24.000042 L19.9999726,24.000042 L21.3333019,24.000042 C22.8066375,24.000042 23.999966,22.8000023 23.999966,21.3333627 L23.999966,20.000003 L23.999966,13.3333567 L23.999966,8.000038 L23.999966,4.000019 L23.999966,2.66665933 C23.999966,1.2000077 22.8066375,4.90274374e-14 21.3333019,4.90274374e-14 L15.9999796,4.90274374e-14 L6.66665793,4.90274374e-14 L2.66665813,4.90274374e-14 L2.66665773,3.55271368e-15 Z M1.37499846,26.3333214 C1.75656956,26.5446814 2.19997105,26.6666813 2.66665773,26.6666813 L5.33332187,26.6666813 L5.33332187,28.000041 L3.33332557,28.000041 C2.35169781,28.000041 1.54455521,27.2462012 1.37499846,26.3333214 L1.37499846,26.3333214 Z" id="Shape" fill="#000000"></path>
                <path d="M3.28746667,9.7408 L4.69866667,9.7408 L4.69866667,14.8096 L7.17546667,14.8096 L7.17546667,16 L3.28746667,16 L3.28746667,9.7408 Z M11.2576,13.408 L11.1136,12.832 C11.0239996,12.5183984 10.9376004,12.1856018 10.8544,11.8336 C10.7711996,11.4815982 10.6880004,11.1424016 10.6048,10.816 L10.5664,10.816 C10.4895996,11.1488017 10.4112004,11.4895983 10.3312,11.8384 C10.2511996,12.1872017 10.1664005,12.5183984 10.0768,12.832 L9.9232,13.408 L11.2576,13.408 Z M11.5456,14.512 L9.6352,14.512 L9.2512,16 L7.8112,16 L9.7696,9.7408 L11.4688,9.7408 L13.4272,16 L11.9296,16 L11.5456,14.512 Z M13.9093333,9.7408 L15.3589333,9.7408 L15.7909333,12.6688 C15.8293335,12.9952016 15.8709331,13.3231984 15.9157333,13.6528 C15.9605336,13.9824016 16.0021331,14.3135983 16.0405333,14.6464 L16.0789333,14.6464 C16.1429337,14.3135983 16.205333,13.9824016 16.2661333,13.6528 C16.3269336,13.3231984 16.389333,12.9952016 16.4533333,12.6688 L17.1253333,9.7408 L18.3253333,9.7408 L18.9973333,12.6688 C19.0613337,12.9888016 19.123733,13.3135984 19.1845333,13.6432 C19.2453336,13.9728016 19.307733,14.3071983 19.3717333,14.6464 L19.4101333,14.6464 C19.4549336,14.3071983 19.4981331,13.9744016 19.5397333,13.648 C19.5813335,13.3215984 19.6245331,12.9952016 19.6693333,12.6688 L20.1013333,9.7408 L21.4549333,9.7408 L20.3413333,16 L18.5653333,16 L17.9509333,13.1584 C17.8997331,12.9151988 17.8533335,12.6704012 17.8117333,12.424 C17.7701331,12.1775988 17.7333335,11.9392012 17.7013333,11.7088 L17.6629333,11.7088 C17.6245331,11.9392012 17.5845335,12.1775988 17.5429333,12.424 C17.5013331,12.6704012 17.4549336,12.9151988 17.4037333,13.1584 L16.8181333,16 L15.0709333,16 L13.9093333,9.7408 Z" id="LAW" fill="#FFFFFF"></path>
            </g>
        </g>
    </g>
</svg>