<svg id="Layer_1" data-name="Layer 1" xmlns="http://www.w3.org/2000/svg" viewBox="0 0 26 37"><title>Context icon</title><path d="M23.16,0.5H4.57C1.65,0.5.5,1.87,0.5,4.81V31.47a1.79,1.79,0,0,0,1.77,1.75H4.55v3a0.31,0.31,0,0,0,.53.24l1.48-1.47a0.27,0.27,0,0,1,.43,0l1.48,1.47A0.31,0.31,0,0,0,9,36.18v-3h11.3a2,2,0,0,0,2-2A0.22,0.22,0,0,1,22.54,31h0.62a2.34,2.34,0,0,0,2.34-2.32V2.82A2.34,2.34,0,0,0,23.16.5ZM20.44,18.68H2.37V10.12H20.44v8.57Zm3.29,9.94h0a0.53,0.53,0,0,1-.53.52H22.54a0.22,0.22,0,0,1-.24-0.24V4.78a1,1,0,0,0-1.13-1.2l-18.76,0A1.22,1.22,0,0,1,3.72,2.39H4.55V3H9V2.39H22.88c0.68,0,.85.28,0.85,0.93v25.3Z"/><path d="M19.84,10.72H3v7.37H19.84V10.72ZM7.64,16.8H3.91V16.19l0.54-.06q0-.34,0-0.69V13.53q0-.35,0-0.7l-0.54-.06V12.15H6.31v0.62l-0.58.06c0,0.23,0,.46,0,0.69v1.91c0,0.23,0,.46,0,0.7h1l0.19-.92H7.72Zm5.15,0H10.53V16.19L11,16.13l-0.25-.69H9.64l-0.25.67,0.48,0.07V16.8H8.08V16.19l0.63-.09,1.48-3.94h0.61l1.51,4,0.48,0.06V16.8Zm6.44-4-0.57.09-1.25,4H16.86l0-.1-1-2.91-1.06,3H14.18l-1.29-4-0.45-.05V12.15h2.25v0.62l-0.49.05,0.57,1.93,0.71-1.93L15,12.77V12.15H17.2v0.62l-0.46.05,0.66,2L18,12.85l-0.57-.08V12.15h1.8v0.61Z"/><polygon points="9.88 14.78 10.54 14.78 10.22 13.89 9.88 14.78"/></svg>
