<?xml version="1.0" encoding="UTF-8"?>
<svg width="18px" height="18px" viewBox="0 0 18 18" version="1.1" xmlns="http://www.w3.org/2000/svg" xmlns:xlink="http://www.w3.org/1999/xlink">
    <!-- Generator: Sketch 40.3 (33839) - http://www.bohemiancoding.com/sketch -->
    <title>laws hover v3</title>
    <desc>Created with Sketch.</desc>
    <defs></defs>
    <g id="Symbols" stroke="none" stroke-width="1" fill="none" fill-rule="evenodd">
        <g id="laws-hover-v3">
            <g id="laws-icon">
                <path d="M8.7919598,0.720452261 C13.241637,0.720452261 16.8634673,4.34228257 16.8634673,8.7919598 C16.8634673,13.241637 13.241637,16.8634673 8.7919598,16.8634673 C4.34228257,16.8634673 0.720452261,13.241637 0.720452261,8.7919598 C0.720452261,4.34228257 4.34228257,0.720452261 8.7919598,0.720452261 L8.7919598,0.720452261 Z" id="Shape" stroke="#3E9CDD" stroke-width="1.5" fill="#3E9CDD"></path>
                <g id="Group" transform="translate(7.326633, 2.930653)" fill="#FFFFFF">
                    <path d="M1.46532663,0.664281407 C0.963859296,0.664281407 0.553567839,1.07457286 0.553567839,1.5760402 C0.553567839,2.07750754 0.963859296,2.48779899 1.46532663,2.48779899 C1.96679397,2.48779899 2.37708543,2.07750754 2.37708543,1.5760402 C2.37708543,1.07457286 1.96679397,0.664281407 1.46532663,0.664281407 L1.46532663,0.664281407 Z" id="Path"></path>
                    <path d="M2.14914573,10.4656884 L2.14914573,4.81278392 C2.14914573,4.42528643 1.85282412,4.12896482 1.46532663,4.12896482 C1.07782915,4.12896482 0.781507538,4.42528643 0.781507538,4.81278392 L0.781507538,10.4656884 C0.781507538,10.8531859 1.07782915,11.1495075 1.46532663,11.1495075 C1.85282412,11.1495075 2.14914573,10.830392 2.14914573,10.4656884 L2.14914573,10.4656884 Z" id="Path"></path>
                </g>
            </g>
        </g>
    </g>
</svg>