<?xml version="1.0" encoding="UTF-8"?>
<svg width="21px" height="21px" viewBox="0 0 21 21" version="1.1" xmlns="http://www.w3.org/2000/svg" xmlns:xlink="http://www.w3.org/1999/xlink">
    <!-- Generator: Sketch 40.3 (33839) - http://www.bohemiancoding.com/sketch -->
    <title>Group 2 Copy</title>
    <desc>Created with Sketch.</desc>
    <defs></defs>
    <g id="UI" stroke="none" stroke-width="1" fill="none" fill-rule="evenodd">
        <g id="Step-4-light" transform="translate(-443.000000, -752.000000)">
            <g id="Group-2-Copy" transform="translate(443.000000, 752.000000)">
                <path d="M10.5,-5.32907052e-15 C16.2884615,-5.32907052e-15 21,4.71153846 21,10.5 C21,16.2884615 16.2884615,21 10.5,21 C4.71153846,21 -9.76996262e-14,16.2884615 -9.76996262e-14,10.5 C-9.76996262e-14,4.71153846 4.71153846,-5.32907052e-15 10.5,-5.32907052e-15 L10.5,-5.32907052e-15 Z" id="Shape" fill="#F2C84B"></path>
                <g id="Group" transform="translate(9.545455, 3.818182)" fill="#2E2B2B">
                    <path d="M0,8.88872727 L0,0.954545455 C0,0.427 0.427,0 0.954545455,0 C1.48209091,0 1.90909091,0.427 1.90909091,0.954545455 L1.90909091,8.88872727 C1.90909091,9.41627273 1.48209091,9.84327273 0.954545455,9.84327273 C0.427,9.84327273 0,9.41627273 0,8.88872727 Z" id="Shape"></path>
                    <path d="M0.954545455,13.0250909 C0.427,13.0250909 0,12.5980909 0,12.0705455 L0,11.7727273 C0,11.2451818 0.427,10.8181818 0.954545455,10.8181818 C1.48209091,10.8181818 1.90909091,11.2451818 1.90909091,11.7727273 L1.90909091,12.0705455 C1.90909091,12.5980909 1.48209091,13.0250909 0.954545455,13.0250909 L0.954545455,13.0250909 Z" id="Shape"></path>
                </g>
            </g>
        </g>
    </g>
</svg>