<?xml version="1.0" encoding="UTF-8"?>
<svg width="18px" height="18px" viewBox="0 0 18 18" version="1.1" xmlns="http://www.w3.org/2000/svg" xmlns:xlink="http://www.w3.org/1999/xlink">
    <!-- Generator: Sketch 40.3 (33839) - http://www.bohemiancoding.com/sketch -->
    <title>Group 2</title>
    <desc>Created with Sketch.</desc>
    <defs></defs>
    <g id="UI" stroke="none" stroke-width="1" fill="none" fill-rule="evenodd">
        <g id="Step-4-light" transform="translate(-447.000000, -754.000000)">
            <g id="Group-2" transform="translate(447.000000, 754.000000)">
                <path d="M9,-3.55271368e-15 C13.9615385,-3.55271368e-15 18,4.03846154 18,9 C18,13.9615385 13.9615385,18 9,18 C4.03846154,18 -8.34887715e-14,13.9615385 -8.34887715e-14,9 C-8.34887715e-14,4.03846154 4.03846154,-3.55271368e-15 9,-3.55271368e-15 L9,-3.55271368e-15 Z" id="Shape" fill="#F2C84B"></path>
                <g id="Group" transform="translate(8.181818, 3.272727)" fill="#2E2B2B">
                    <path d="M0,7.61890909 L0,0.818181818 C0,0.366 0.366,0 0.818181818,0 C1.27036364,0 1.63636364,0.366 1.63636364,0.818181818 L1.63636364,7.61890909 C1.63636364,8.07109091 1.27036364,8.43709091 0.818181818,8.43709091 C0.366,8.43709091 0,8.07109091 0,7.61890909 Z" id="Shape"></path>
                    <path d="M0.818181818,11.1643636 C0.366,11.1643636 0,10.7983636 0,10.3461818 L0,10.0909091 C0,9.63872727 0.366,9.27272727 0.818181818,9.27272727 C1.27036364,9.27272727 1.63636364,9.63872727 1.63636364,10.0909091 L1.63636364,10.3461818 C1.63636364,10.7983636 1.27036364,11.1643636 0.818181818,11.1643636 L0.818181818,11.1643636 Z" id="Shape"></path>
                </g>
            </g>
        </g>
    </g>
</svg>