<?xml version="1.0" encoding="UTF-8"?>
<svg width="15px" height="15px" viewBox="0 0 15 15" version="1.1" xmlns="http://www.w3.org/2000/svg" xmlns:xlink="http://www.w3.org/1999/xlink">
    <!-- Generator: Sketch 40.3 (33839) - http://www.bohemiancoding.com/sketch -->
    <title>Group 2</title>
    <desc>Created with Sketch.</desc>
    <defs></defs>
    <g id="UI" stroke="none" stroke-width="1" fill="none" fill-rule="evenodd">
        <g id="Step-4-light" transform="translate(-447.000000, -755.000000)">
            <g id="Group-2" transform="translate(447.000000, 755.000000)">
                <path d="M7.5,-3.55271368e-15 C11.6346154,-3.55271368e-15 15,3.36538462 15,7.5 C15,11.6346154 11.6346154,15 7.5,15 C3.36538462,15 -7.01660952e-14,11.6346154 -7.01660952e-14,7.5 C-7.01660952e-14,3.36538462 3.36538462,-3.55271368e-15 7.5,-3.55271368e-15 L7.5,-3.55271368e-15 Z" id="Shape" fill="#F2C84B"></path>
                <g id="Group" transform="translate(6.818182, 2.727273)" fill="#2E2B2B">
                    <path d="M0,6.34909091 L0,0.681818182 C0,0.305 0.305,0 0.681818182,0 C1.05863636,0 1.36363636,0.305 1.36363636,0.681818182 L1.36363636,6.34909091 C1.36363636,6.72590909 1.05863636,7.03090909 0.681818182,7.03090909 C0.305,7.03090909 0,6.72590909 0,6.34909091 Z" id="Shape"></path>
                    <path d="M0.681818182,9.30363636 C0.305,9.30363636 0,8.99863636 0,8.62181818 L0,8.40909091 C0,8.03227273 0.305,7.72727273 0.681818182,7.72727273 C1.05863636,7.72727273 1.36363636,8.03227273 1.36363636,8.40909091 L1.36363636,8.62181818 C1.36363636,8.99863636 1.05863636,9.30363636 0.681818182,9.30363636 L0.681818182,9.30363636 Z" id="Shape"></path>
                </g>
            </g>
        </g>
    </g>
</svg>