<?xml version="1.0" encoding="UTF-8"?>
<svg width="15px" height="15px" viewBox="0 0 15 15" version="1.1" xmlns="http://www.w3.org/2000/svg" xmlns:xlink="http://www.w3.org/1999/xlink">
    <!-- Generator: Sketch 40.2 (33826) - http://www.bohemiancoding.com/sketch -->
    <title>laws icon copy 3</title>
    <desc>Created with Sketch.</desc>
    <defs></defs>
    <g id="UI" stroke="none" stroke-width="1" fill="none" fill-rule="evenodd">
        <g id="Step-4---Desktop-HD" transform="translate(-447.000000, -785.000000)">
            <g id="Group-7" transform="translate(234.000000, 490.000000)">
                <g id="Group-5" transform="translate(0.000000, 218.000000)">
                    <g id="Laws-icon" transform="translate(213.000000, 77.000000)">
                        <g id="laws-icon">
                            <path d="M6,0.491666667 C9.0366453,0.491666667 11.5083333,2.9633547 11.5083333,6 C11.5083333,9.0366453 9.0366453,11.5083333 6,11.5083333 C2.9633547,11.5083333 0.491666667,9.0366453 0.491666667,6 C0.491666667,2.9633547 2.9633547,0.491666667 6,0.491666667 L6,0.491666667 Z" id="Shape" stroke="#619CC5" stroke-width="0.7"></path>
                            <g id="Group" transform="translate(5.000000, 2.000000)" fill="#619CC5">
                                <path d="M1,0.453333333 C0.657777778,0.453333333 0.377777778,0.733333333 0.377777778,1.07555556 C0.377777778,1.41777778 0.657777778,1.69777778 1,1.69777778 C1.34222222,1.69777778 1.62222222,1.41777778 1.62222222,1.07555556 C1.62222222,0.733333333 1.34222222,0.453333333 1,0.453333333 L1,0.453333333 Z" id="Path"></path>
                                <path d="M1.46666667,7.14222222 L1.46666667,3.28444444 C1.46666667,3.02 1.26444444,2.81777778 1,2.81777778 C0.735555556,2.81777778 0.533333333,3.02 0.533333333,3.28444444 L0.533333333,7.14222222 C0.533333333,7.40666667 0.735555556,7.60888889 1,7.60888889 C1.26444444,7.60888889 1.46666667,7.39111111 1.46666667,7.14222222 L1.46666667,7.14222222 Z" id="Path"></path>
                            </g>
                        </g>
                    </g>
                </g>
            </g>
        </g>
    </g>
</svg>