<?xml version="1.0" encoding="UTF-8"?>
<svg width="17px" height="17px" viewBox="0 0 17 17" version="1.1" xmlns="http://www.w3.org/2000/svg" xmlns:xlink="http://www.w3.org/1999/xlink">
    <!-- Generator: Sketch 40.2 (33826) - http://www.bohemiancoding.com/sketch -->
    <title>No Restriction Group icon Copy</title>
    <desc>Created with Sketch.</desc>
    <defs></defs>
    <g id="UI" stroke="none" stroke-width="1" fill="none" fill-rule="evenodd">
        <g id="Step-4---Desktop-HD" transform="translate(-252.000000, -724.000000)">
            <g id="Group-7" transform="translate(234.000000, 490.000000)">
                <g id="Group-5" transform="translate(0.000000, 218.000000)">
                    <g id="Limitations-Apply-Group-icon" transform="translate(18.000000, 16.000000)">
                        <path d="M7,-3.55271368e-15 C10.8589744,-3.55271368e-15 14,3.14102564 14,7 C14,10.8589744 10.8589744,14 7,14 C3.14102564,14 -6.57252031e-14,10.8589744 -6.57252031e-14,7 C-6.57252031e-14,3.14102564 3.14102564,-3.55271368e-15 7,-3.55271368e-15 L7,-3.55271368e-15 Z" id="Shape" fill="#F2C84B"></path>
                        <g id="Group" stroke-width="1" transform="translate(6.363636, 2.545455)" fill="#2E2B2B">
                            <path d="M0,5.92581818 L0,0.636363636 C0,0.284666667 0.284666667,0 0.636363636,0 C0.988060606,0 1.27272727,0.284666667 1.27272727,0.636363636 L1.27272727,5.92581818 C1.27272727,6.27751515 0.988060606,6.56218182 0.636363636,6.56218182 C0.284666667,6.56218182 0,6.27751515 0,5.92581818 Z" id="Shape"></path>
                            <path d="M0.636363636,8.68339394 C0.284666667,8.68339394 0,8.39872727 0,8.0470303 L0,7.84848485 C0,7.49678788 0.284666667,7.21212121 0.636363636,7.21212121 C0.988060606,7.21212121 1.27272727,7.49678788 1.27272727,7.84848485 L1.27272727,8.0470303 C1.27272727,8.39872727 0.988060606,8.68339394 0.636363636,8.68339394 L0.636363636,8.68339394 Z" id="Shape"></path>
                        </g>
                    </g>
                </g>
            </g>
        </g>
    </g>
</svg>