<?xml version="1.0" encoding="UTF-8"?>
<svg width="17px" height="18px" viewBox="0 0 17 18" version="1.1" xmlns="http://www.w3.org/2000/svg" xmlns:xlink="http://www.w3.org/1999/xlink">
    <!-- Generator: Sketch 40.2 (33826) - http://www.bohemiancoding.com/sketch -->
    <title>No Restriction Group icon Copy 2</title>
    <desc>Created with Sketch.</desc>
    <defs></defs>
    <g id="UI" stroke="none" stroke-width="1" fill="none" fill-rule="evenodd">
        <g id="Step-4---Desktop-HD" transform="translate(-252.000000, -1020.000000)">
            <g id="Group-7" transform="translate(234.000000, 490.000000)">
                <g id="Group-4" transform="translate(0.000000, 514.000000)">
                    <g id="Restriction-Group-icon" transform="translate(18.000000, 16.472362)">
                        <path d="M7,-3.55271368e-15 C10.8589744,-3.55271368e-15 14,3.14102564 14,7 C14,10.8589744 10.8589744,14 7,14 C3.14102564,14 -6.57252031e-14,10.8589744 -6.57252031e-14,7 C-6.57252031e-14,3.14102564 3.14102564,-3.55271368e-15 7,-3.55271368e-15 L7,-3.55271368e-15 Z" id="Shape" fill="#D84B39"></path>
                        <path d="M7.66257251,7 C8.45765951,6.20491299 9.25274652,5.40982599 10.0478335,4.61473898 C10.4674628,4.19510973 9.80489027,3.53253722 9.38526102,3.95216647 L7,6.33742749 C6.20491299,5.54234049 5.40982599,4.74725348 4.61473898,3.95216647 C4.19510973,3.53253722 3.53253722,4.19510973 3.95216647,4.61473898 C4.74725348,5.40982599 5.54234049,6.20491299 6.33742749,7 L3.95216647,9.38526102 C3.53253722,9.80489027 4.19510973,10.4674628 4.61473898,10.0478335 C5.40982599,9.25274652 6.20491299,8.45765951 7,7.66257251 C7.79508701,8.45765951 8.59017401,9.25274652 9.38526102,10.0478335 C9.80489027,10.4674628 10.4674628,9.80489027 10.0478335,9.38526102 L7.66257251,7 L7.66257251,7 Z" id="Shape" fill="#FFFFFF"></path>
                    </g>
                </g>
            </g>
        </g>
    </g>
</svg>