<svg id="Layer_1" data-name="Layer 1" xmlns="http://www.w3.org/2000/svg" viewBox="0 0 26 37"><title>Context icon_Applicable law mini</title><path d="M23.16,0.5H4.57C1.65,0.5.5,1.87,0.5,4.81V31.47a1.79,1.79,0,0,0,1.77,1.75H4.55v3a0.31,0.31,0,0,0,.53.24l1.48-1.47a0.27,0.27,0,0,1,.43,0l1.48,1.47A0.31,0.31,0,0,0,9,36.18v-3h11.3a2,2,0,0,0,2-2A0.22,0.22,0,0,1,22.54,31h0.62a2.34,2.34,0,0,0,2.34-2.32V2.82A2.34,2.34,0,0,0,23.16.5ZM6.43,19.82H2.11V19.19l0.64-.07c0-.29,0-0.58,0-0.87V16c0-.29,0-0.58,0-0.87l-0.64-.07V14.42H4.86v0.63l-0.68.07q0,0.44,0,.87v2.27q0,0.44,0,.88H5.44L5.66,18H6.52Zm6.09,0H10V19.2l0.6-.07-0.32-.91H8.81l-0.33.89,0.59,0.09v0.63h-2V19.19l0.73-.11,1.75-4.67h0.65L12,19.13l0.55,0.07v0.62ZM20.15,15l-0.67.11L18,19.9H17.43l0-.08-1.27-3.59-1.3,3.67H14.26l0-.09-1.49-4.7-0.52-.06V14.42h2.55v0.63l-0.59.07,0.74,2.5,0.92-2.5-0.57-.06V14.42h2.47v0.63l-0.56.07L18,17.65l0.78-2.5L18.12,15V14.42h2V15Zm3.58,13.58h0a0.53,0.53,0,0,1-.53.52H22.54a0.22,0.22,0,0,1-.24-0.24V4.78a1,1,0,0,0-1.13-1.2l-18.76,0A1.22,1.22,0,0,1,3.72,2.39H22.88c0.68,0,.85.28,0.85,0.93v25.3Z"/><polygon points="9.06 17.54 9.98 17.54 9.53 16.27 9.06 17.54"/></svg>
