<svg id="Layer_1" data-name="Layer 1" xmlns="http://www.w3.org/2000/svg" viewBox="0 0 26 37"><title>Context icon</title><path d="M23.16,0.5H4.57C1.65,0.5.5,1.87,0.5,4.81V31.47a1.79,1.79,0,0,0,1.77,1.75H4.55v3a0.31,0.31,0,0,0,.53.24l1.48-1.47a0.27,0.27,0,0,1,.43,0l1.48,1.47A0.31,0.31,0,0,0,9,36.18v-3h11.3a2,2,0,0,0,2-2A0.22,0.22,0,0,1,22.54,31h0.62a2.34,2.34,0,0,0,2.34-2.32V2.82A2.34,2.34,0,0,0,23.16.5Zm0.57,28.12h0a0.53,0.53,0,0,1-.53.52H22.54a0.22,0.22,0,0,1-.24-0.24V4.78a1,1,0,0,0-1.13-1.2l-18.76,0A1.22,1.22,0,0,1,3.72,2.39H4.55V3H9V2.39H22.88c0.68,0,.85.28,0.85,0.93v25.3Z"/></svg>
