<?xml version="1.0" encoding="UTF-8"?>
<svg width="13px" height="14px" viewBox="0 0 13 14" version="1.1" xmlns="http://www.w3.org/2000/svg" xmlns:xlink="http://www.w3.org/1999/xlink">
    <!-- Generator: Sketch 40.2 (33826) - http://www.bohemiancoding.com/sketch -->
    <title>restriction iocn copy</title>
    <desc>Created with Sketch.</desc>
    <defs></defs>
    <g id="UI" stroke="none" stroke-width="1" fill="none" fill-rule="evenodd">
        <g id="Step-4---Desktop-HD" transform="translate(-274.000000, -903.000000)">
            <g id="Group-7" transform="translate(234.000000, 490.000000)">
                <g id="Group-5" transform="translate(0.000000, 218.000000)">
                    <g id="Group-3" transform="translate(40.000000, 147.000000)">
                        <g id="Restriction-iocn" transform="translate(0.000000, 48.384615)">
                            <path d="M5,0 C2.24444444,0 0,2.24444444 0,5 C0,7.75555556 2.24444444,10 5,10 C7.75555556,10 10,7.75555556 10,5 C10,2.24444444 7.75555556,0 5,0 L5,0 Z" id="Shape" fill="#619CC5"></path>
                            <path d="M5.47326608,5 C6.04118537,4.43208071 6.60910466,3.86416142 7.17702395,3.29624213 C7.47675913,2.99650695 7.00349305,2.52324087 6.70375787,2.82297605 C6.13583858,3.39089534 5.56791929,3.95881463 5,4.52673392 C4.43208071,3.95881463 3.86416142,3.39089534 3.29624213,2.82297605 C2.99650695,2.52324087 2.52324087,2.99650695 2.82297605,3.29624213 C3.39089534,3.86416142 3.95881463,4.43208071 4.52673392,5 C3.95881463,5.56791929 3.39089534,6.13583858 2.82297605,6.70375787 C2.52324087,7.00349305 2.99650695,7.47675913 3.29624213,7.17702395 C3.86416142,6.60910466 4.43208071,6.04118537 5,5.47326608 L6.70375787,7.17702395 C7.00349305,7.47675913 7.47675913,7.00349305 7.17702395,6.70375787 L5.47326608,5 L5.47326608,5 Z" id="Shape" fill="#FFFFFF"></path>
                        </g>
                    </g>
                </g>
            </g>
        </g>
    </g>
</svg>