<?xml version="1.0" encoding="UTF-8"?>
<svg width="32px" height="32px" viewBox="0 0 32 32" version="1.1" xmlns="http://www.w3.org/2000/svg" xmlns:xlink="http://www.w3.org/1999/xlink">
    <!-- Generator: Sketch 40.1 (33804) - http://www.bohemiancoding.com/sketch -->
    <title>Restriction context icon</title>
    <desc>Created with Sketch.</desc>
    <defs></defs>
    <g id="Symbols" stroke="none" stroke-width="1" fill="none" fill-rule="evenodd">
        <g id="Restriction-context-icon">
            <g id="Group">
                <path d="M16,0 C7.18222222,0 0,7.18222222 0,16 C0,24.8177778 7.18222222,32 16,32 C24.8177778,32 32,24.8177778 32,16 C32,7.18222222 24.8177778,0 16,0 L16,0 Z" id="Shape" fill="#000000"></path>
                <path d="M17.5144514,16 C19.3317932,14.1826583 21.1491349,12.3653165 22.9664766,10.5479748 C23.9256292,9.58882223 22.4111778,8.07437079 21.4520252,9.03352337 C19.6346835,10.8508651 17.8173417,12.6682068 16,14.4855486 C14.1826583,12.6682068 12.3653165,10.8508651 10.5479748,9.03352337 C9.58882223,8.07437079 8.07437079,9.58882223 9.03352337,10.5479748 C10.8508651,12.3653165 12.6682068,14.1826583 14.4855486,16 L9.03352337,21.4520252 C8.07437079,22.4111778 9.58882223,23.9256292 10.5479748,22.9664766 C12.3653165,21.1491349 14.1826583,19.3317932 16,17.5144514 C17.8173417,19.3317932 19.6346835,21.1491349 21.4520252,22.9664766 C22.4111778,23.9256292 23.9256292,22.4111778 22.9664766,21.4520252 C21.1491349,19.6346835 19.3317932,17.8173417 17.5144514,16 L17.5144514,16 Z" id="Shape" fill="#FFFFFF"></path>
            </g>
        </g>
    </g>
</svg>